<?xml version="1.0" encoding="UTF-8" standalone="no"?>
<!-- Created with Inkscape (http://www.inkscape.org/) -->

<svg
   width="297mm"
   height="210mm"
   viewBox="0 0 297 210"
   version="1.1"
   id="svg5"
   xmlns:xlink="http://www.w3.org/1999/xlink"
   xmlns="http://www.w3.org/2000/svg"
   xmlns:svg="http://www.w3.org/2000/svg">
  <defs
     id="defs2">
    <linearGradient
       id="linearGradient57774">
      <stop
         style="stop-color:#000000;stop-opacity:1;"
         offset="0"
         id="stop57770" />
      <stop
         style="stop-color:#000000;stop-opacity:0;"
         offset="1"
         id="stop57772" />
    </linearGradient>
    <rect
       x="1332.1912"
       y="409.11426"
       width="69.898918"
       height="602.3642"
       id="rect39664" />
    <linearGradient
       id="linearGradient28554">
      <stop
         style="stop-color:#0b090b;stop-opacity:1;"
         offset="0"
         id="stop28550" />
      <stop
         style="stop-color:#0b090b;stop-opacity:0;"
         offset="1"
         id="stop28552" />
    </linearGradient>
    <rect
       x="320.71268"
       y="655.81635"
       width="1913.9969"
       height="871.6806"
       id="rect21043" />
    <rect
       x="962.13806"
       y="713.38013"
       width="1274.6273"
       height="857.28967"
       id="rect5221" />
    <linearGradient
       xlink:href="#linearGradient28554"
       id="linearGradient28556"
       x1="233.45647"
       y1="364.88849"
       x2="590.01251"
       y2="364.88849"
       gradientUnits="userSpaceOnUse" />
    <linearGradient
       xlink:href="#linearGradient57774"
       id="linearGradient57776"
       x1="145.19398"
       y1="175.29591"
       x2="157.90339"
       y2="175.29591"
       gradientUnits="userSpaceOnUse" />
  </defs>
  <g
     id="layer1">
    <path
       id="path4279-9-1"
       style="fill:#0b090b;fill-opacity:1;stroke:#000000;stroke-width:0.870894;stroke-linecap:round;stroke-miterlimit:4;stroke-dasharray:none;stroke-opacity:1"
       d="m 257.71363,105.49849 c 0,-11.135507 -1.93001,-21.657016 -5.29636,-31.892282 -2.91552,-8.864589 -6.8775,-17.656639 -12.70047,-24.940689 L 231.46048,38.337524 C 226.85365,32.574742 220.93805,27.931858 214.88161,23.583094 208.57426,19.054235 201.72687,15.176249 194.44834,12.05338 181.08993,6.3219335 166.27925,3.1340009 150.69014,3.1340009 c -15.45994,-2.1e-6 -30.15422,3.135313 -43.42575,8.7774101 -5.8111,2.470465 -11.349416,5.421531 -16.55979,8.800443 -4.473223,2.900877 -8.704748,6.117101 -12.659651,9.615274 -7.249727,6.412538 -18.745646,21.874315 -18.745646,21.874315 -3.641366,5.700023 -6.716216,11.767251 -9.149659,18.130061 -4.194172,10.966619 -6.482954,22.811147 -6.482954,35.167006 0,9.63127 1.390684,18.95188 3.990446,27.7882 1.272509,4.32507 2.834688,8.5341 4.665256,12.60672 1.90371,4.23542 4.097679,8.32327 6.557957,12.24074 6.467478,10.29796 14.775249,19.41813 24.488256,26.94446 10.199656,7.90341 21.948865,14.0492 34.743875,17.95553 10.27206,3.13612 21.21818,4.82882 32.57766,4.82882 10.09519,0 19.86392,-1.3369 29.12326,-3.8357 10.32754,-2.787 20.02138,-7.01953 28.82751,-12.45468 8.59683,-5.30594 16.34774,-11.75798 23.0165,-19.13028 4.60012,-5.0854 8.68535,-10.60866 12.17814,-16.49565 4.96976,-8.37644 8.7401,-17.48923 11.08764,-27.12475 1.82532,-7.49193 2.79044,-15.29988 2.79044,-23.32343 z" />
    <path
       id="path4279-9"
       style="opacity:1;mix-blend-mode:normal;fill:#99e1d9;fill-opacity:1;stroke:none;stroke-width:1.00414;stroke-linecap:round;stroke-miterlimit:4;stroke-dasharray:none;stroke-opacity:1"
       d="m 254.70019,105.01883 c 0,-10.632997 -1.87257,-20.679657 -5.13882,-30.453014 -2.82883,-8.464536 -6.67292,-16.859828 -12.32275,-23.815157 l -8.01072,-9.861881 c -4.46983,-5.502729 -10.20946,-9.936091 -16.08581,-14.088594 -6.11971,-4.32448 -12.76341,-8.02745 -19.82546,-11.009394 -12.96112,-5.472787 -27.33128,-8.5168524 -42.45672,-8.5168524 -15.00011,0 -29.25731,2.9938184 -42.13412,8.3812964 -5.63826,2.358974 -11.011845,5.176862 -16.067252,8.403284 -4.340177,2.769972 -8.445843,5.841044 -12.283113,9.181362 -7.034105,6.123148 -18.188099,20.887137 -18.188099,20.887137 -3.533051,5.442789 -6.516446,11.236219 -8.877507,17.311874 -4.069424,10.471697 -6.290128,21.781693 -6.290128,33.579939 0,9.19665 1.349305,18.09664 3.87175,26.53416 1.234657,4.12988 2.75038,8.14896 4.526487,12.03781 1.84709,4.04425 3.975809,7.94764 6.362911,11.6883 6.275106,9.83321 14.335784,18.54182 23.759894,25.72848 9.896283,7.54675 21.296057,13.4152 33.710487,17.14524 9.96655,2.99454 20.58709,4.61088 31.60869,4.61088 9.79492,0 19.2731,-1.27655 28.25702,-3.66256 10.02037,-2.66128 19.42588,-6.70276 27.97012,-11.89263 8.34112,-5.06649 15.86151,-11.22737 22.33191,-18.26693 4.46331,-4.85594 8.42701,-10.12994 11.81592,-15.75125 4.82197,-7.99844 8.48015,-16.69996 10.7579,-25.90067 1.771,-7.15381 2.70741,-14.60936 2.70741,-22.27083 z" />
    <path
       id="path4279-9-8"
       style="opacity:0.338762;fill:#ff00ff;fill-opacity:1;stroke:none;stroke-width:1.00414;stroke-linecap:round;stroke-miterlimit:4;stroke-dasharray:none;stroke-opacity:1"
       d="m 254.70019,105.01883 c 0,-10.632997 -1.87257,-20.679657 -5.13882,-30.453014 -2.82883,-8.464536 -6.67292,-16.859819 -12.32275,-23.815151 l -8.01072,-9.861881 c -4.46983,-5.502735 -10.20946,-9.936088 -16.08581,-14.0886 -6.11971,-4.324474 -12.76341,-8.02745 -19.82546,-11.009388 -12.96112,-5.472795 -27.33128,-8.5168541 -42.45672,-8.5168551 -15.00012,-3.3e-6 -29.25732,2.9938191 -42.13412,8.3812951 -5.63827,2.358972 -11.011856,5.176861 -16.067252,8.403286 -4.340177,2.76996 -8.445845,5.84104 -12.283117,9.181358 -7.034104,6.123141 -18.188098,20.887143 -18.188098,20.887143 -3.533051,5.442783 -6.516446,11.236213 -8.87751,17.311874 -4.069422,10.471691 -6.290127,21.781687 -6.290127,33.579933 0,9.19665 1.349308,22.28235 3.871753,22.2591 1.234655,-0.0123 2.75038,-0.0225 4.526486,-0.0333 1.847089,-0.0123 3.975809,-0.0219 6.36291,-0.0322 6.275107,-0.0271 14.335783,-0.0512 23.759895,-0.0711 9.896264,-0.0208 21.29606,-0.0371 33.71049,-0.0471 9.96655,-0.007 20.58709,-0.0138 31.60869,-0.0138 9.79492,0 19.2731,0.002 28.25702,0.008 10.02037,0.006 19.42588,0.0185 27.97012,0.0327 8.34112,0.0146 15.86151,0.0311 22.33191,0.0503 4.46331,0.0137 8.42701,0.0279 11.81592,0.0434 4.82197,0.0221 8.48015,0.0463 10.7579,0.0715 1.771,0.0198 2.70741,-14.60939 2.70741,-22.27083 z" />
    <path
       id="path4279-9-8-9"
       style="opacity:0.485;fill:#70abaf;fill-opacity:1;stroke:none;stroke-width:1.00399;stroke-linecap:round;stroke-miterlimit:4;stroke-dasharray:none;stroke-opacity:1"
       d="m 254.63733,105.548 c 0,10.63301 -1.05608,20.95171 -5.13726,30.45311 -4.59395,14.00645 -11.31038,22.57297 -20.32732,33.67692 -4.46848,5.50272 -10.20637,9.93607 -16.08094,14.08857 -6.11786,4.32449 -12.75955,8.02746 -19.81946,11.00942 -12.9572,5.47278 -27.32301,8.51685 -42.44387,8.51685 -14.99558,0 -29.24846,-2.99383 -42.12137,-8.3813 -5.63656,-2.35897 -11.008521,-5.17688 -16.062398,-8.40331 -4.338851,-2.76995 -8.443281,-5.84104 -12.279392,-9.18135 C 68.490097,166.36368 58.678097,152.78944 53.307907,139.12799 49.239714,128.65633 47.019682,117.3463 47.019682,105.548 c 0,-9.196635 1.348899,-22.282273 3.870579,-22.259 1.234283,0.01172 2.749549,0.02247 4.525119,0.03326 1.846531,0.01172 3.974605,0.02189 6.360983,0.03225 6.273208,0.02715 14.331444,0.05123 23.752703,0.07091 9.893272,0.02073 21.289614,0.03707 33.700274,0.04728 9.96355,0.0088 20.58088,0.01308 31.59914,0.01308 9.79196,0 19.26727,-0.0029 28.24847,-0.01037 10.01733,-0.0071 19.42,-0.01852 27.96165,-0.03283 8.3386,-0.0146 15.85671,-0.03093 22.32515,-0.05048 4.46196,-0.01308 8.42446,-0.02788 11.81235,-0.04348 4.82051,-0.02202 7.94841,-0.04611 10.22547,-0.07149 1.77046,-0.01969 3.23576,14.609327 3.23576,22.27077 z" />
    <path
       id="path19786"
       style="opacity:1;fill:#0b090b;fill-opacity:1;stroke:none;stroke-width:3.90345;stroke-linecap:round;stroke-miterlimit:4;stroke-dasharray:none;stroke-opacity:1"
       d="m 251.20692,104.32857 c 0,-2.94034 -67.12864,-5.505921 -67.42175,-8.357724 -0.2274,-2.212172 64.7863,-10.710041 64.39489,-12.877054 -0.80516,-4.457861 -0.29543,-2.84433 -1.72493,-7.157077 -1.38222,-4.170082 -3.02659,-8.322165 -5.04094,-12.267635 -1.79767,-3.521095 -3.89004,-6.877642 -6.35371,-9.935641 l -7.40739,-9.194401 c -1.14054,-1.41572 -99.43733,6.573115 -115.72832,-3.723403 9.23035,-5.119461 109.61401,1.620853 106.77878,-4.970946 -0.82694,-1.922561 -3.9148,-3.00868 -5.92474,-4.440691 -5.65876,-4.031791 -11.80212,-7.484128 -18.33228,-10.264236 -4.87857,-2.076976 -9.97303,-3.778753 -15.24263,-5.066636 -7.67589,-1.875984 -11.48334,-3.717177 -19.77643,-3.717177 -13.8703,-1e-6 -34.50419,-1.779623 -46.74695,9.186593 -7.48406,6.703702 53.62679,-2.840639 67.22781,4.866414 -4.25856,6.580216 -82.302012,4.290163 -85.850279,7.40439 -3.516907,3.086708 -11.101793,11.037018 -14.613605,15.38482 -2.98308,3.693218 128.896174,12.62562 128.896174,12.62562 -0.79115,9.697929 -150.962492,-6.526112 -141.171757,6.337694 6.046304,7.944089 89.434347,10.317858 88.033927,12.275684 -4.96742,6.944587 -94.059344,5.165782 -94.60497,8.137096 -0.939724,5.117472 -1.429626,10.381636 -1.429626,15.75431 0,3.69332 140.584556,6.63697 141.034526,10.21529 0.59471,4.72893 -138.782151,10.04496 -137.454382,14.52296 0.623111,2.10147 1.323643,4.17222 2.098496,6.20925 0.812173,2.13514 1.70599,4.23324 2.677876,6.2909 0.823145,1.74274 1.702297,3.45648 2.635258,5.13914 0.842516,1.5195 1.728913,3.01365 2.657615,4.48098 2.514638,3.97298 138.076497,-0.28881 142.004847,8.15573 0.0871,0.1873 0.12832,0.32964 -0.0675,0.44339 -12.53656,7.28337 -126.603812,-1.28701 -128.254343,5.51229 -0.05485,5.1096 10.833918,10.70981 14.635553,12.57428 2.51892,1.23524 88.32535,-8.2939 90.42964,-1.82842 4.18468,12.85748 -67.14996,3.55375 -80.49258,10.358 -4.45028,11.79498 36.033,12.902 46.48966,12.62139 9.29574,-0.24944 15.82598,-1.51979 24.13328,-3.74434 4.71545,-1.26265 9.66342,-4.4768 14.05432,-6.37757 4.23705,-1.83416 7.54939,-5.57026 11.42936,-7.94643 3.70655,-2.27002 7.23785,-4.7756 10.57034,-7.49459 3.60202,-2.93882 6.97179,-6.12694 10.07959,-9.536 4.12718,-4.52726 7.79234,-9.44428 10.92598,-14.68513 1.87524,-3.13624 3.56015,-6.38845 5.03977,-9.74242 0.87055,-1.97329 -88.74805,-3.98183 -88.02263,-6.02271 0.97324,-2.73821 91.1309,-3.63092 91.83015,-6.47872 1.63763,-6.66961 3.60388,-15.52434 3.60388,-22.66727 z" />
    <text
       xml:space="preserve"
       transform="matrix(0.1517898,0,0,0.15171216,-11.402282,-18.805984)"
       id="text21041"
       style="font-style:normal;font-weight:normal;font-size:800px;line-height:1.25;font-family:sans-serif;white-space:pre;shape-inside:url(#rect21043);fill:#000000;fill-opacity:1;stroke:none" />
    <text
       xml:space="preserve"
       transform="matrix(0.1517898,0,0,0.15171216,-11.402282,-18.805984)"
       id="text39662"
       style="font-style:normal;font-weight:normal;font-size:40px;line-height:1.25;font-family:sans-serif;white-space:pre;shape-inside:url(#rect39664);fill:#000000;fill-opacity:1;stroke:none" />
  </g>
</svg>
